HIERARCHY
ROOT Hips
{
	OFFSET 0.00000 0.00000 0.00000
	CHANNELS 6 Xposition Yposition Zposition Zrotation Yrotation Xrotation 
	JOINT LHipJoint
	{
		OFFSET 0 0 0
		CHANNELS 3 Zrotation Yrotation Xrotation
		JOINT LeftHip
		{
			OFFSET 1.80322 -1.53100 0.99595
			CHANNELS 3 Zrotation Yrotation Xrotation
			JOINT LeftKnee
			{
				OFFSET 2.25177 -6.18669 0.00000
				CHANNELS 3 Zrotation Yrotation Xrotation
				JOINT LeftAnkle
				{
					OFFSET 2.26601 -6.22582 0.00000
					CHANNELS 3 Zrotation Yrotation Xrotation
					JOINT LeftToe
					{
						OFFSET 0.23701 -0.65119 2.15848
						CHANNELS 3 Zrotation Yrotation Xrotation
						End Site
						{
							OFFSET 0.00000 -0.00000 1.12949
						}
					}
				}
			}
		}
	}
	JOINT RHipJoint
	{
		OFFSET 0 0 0
		CHANNELS 3 Zrotation Yrotation Xrotation
		JOINT RightHip
		{
			OFFSET -1.93977 -1.53100 0.99595
			CHANNELS 3 Zrotation Yrotation Xrotation
			JOINT RightKnee
			{
				OFFSET -2.28036 -6.26523 0.00000
				CHANNELS 3 Zrotation Yrotation Xrotation
				JOINT RightAnkle
				{
					OFFSET -2.25490 -6.19528 0.00000
					CHANNELS 3 Zrotation Yrotation Xrotation
					JOINT RightToe
					{
						OFFSET -0.28375 -0.77960 2.23137
						CHANNELS 3 Zrotation Yrotation Xrotation
						End Site
						{
							OFFSET -0.00000 -0.00000 1.17899
						}
					}
				}
			}
		}
	}
	JOINT lowerback
	{
		OFFSET 0 0 0
		CHANNELS 3 Zrotation Yrotation Xrotation
		JOINT Chest
		{
			OFFSET -0.00088 2.12090 -0.02806
			CHANNELS 3 Zrotation Yrotation Xrotation
			JOINT Chest2
			{
				OFFSET -0.00286 2.09666 0.12974
				CHANNELS 3 Zrotation Yrotation Xrotation
				JOINT lowerneck
				{
					OFFSET 0 0 0
					CHANNELS 3 Zrotation Yrotation Xrotation
					JOINT Neck
					{
						OFFSET 0.07328 1.83526 0.07290
						CHANNELS 3 Zrotation Yrotation Xrotation
						JOINT Head
						{
							OFFSET -0.06683 1.74974 -0.49542
							CHANNELS 3 Zrotation Yrotation Xrotation
							End Site
							{
								OFFSET -0.03398 1.85163 -0.17573
							}
						}
					}
				}
				JOINT LeftCollar
				{
					OFFSET 0 0 0
					CHANNELS 3 Zrotation Yrotation Xrotation
					JOINT LeftShoulder
					{
						OFFSET 3.02113 1.18018 0.40602
CHANNELS 3 Zrotation Xrotation Yrotation
						JOINT LeftElbow
						{
OFFSET 0 -4.585380 -0.000000
CHANNELS 3 Zrotation Xrotation Yrotation
							JOINT LeftWrist
							{
OFFSET 0 -2.689350 -0.000000
CHANNELS 3 Zrotation Xrotation Yrotation
								JOINT lhand
								{
									OFFSET 0 0 0
CHANNELS 3 Zrotation Xrotation Yrotation
									JOINT LFingers
									{
OFFSET 0 -0.585060 -0.000000
CHANNELS 3 Zrotation Xrotation Yrotation
										End Site
										{
OFFSET 0 -0.471690 -0.000000
										}
									}
								}
								JOINT LThumb
								{
OFFSET 0 0.000000 0.000000
CHANNELS 3 Zrotation Xrotation Yrotation
									End Site
									{
OFFSET 0 -0.478890 0.478890
									}
								}
							}
						}
					}
				}
				JOINT RightCollar
				{
					OFFSET 0 0 0
					CHANNELS 3 Zrotation Yrotation Xrotation
					JOINT RightShoulder
					{
						OFFSET -2.95074 1.18843 0.31430
CHANNELS 3 Zrotation Xrotation Yrotation
						JOINT RightElbow
						{
OFFSET 0 -4.474500 -0.000000
CHANNELS 3 Zrotation Xrotation Yrotation
							JOINT RightWrist
							{
OFFSET 0 -2.938960 -0.000000
CHANNELS 3 Zrotation Xrotation Yrotation
								JOINT rhand
								{
									OFFSET 0 0 0
CHANNELS 3 Zrotation Xrotation Yrotation
									JOINT RFingers
									{
OFFSET 0 -0.405090 -0.000000
CHANNELS 3 Zrotation Xrotation Yrotation
										End Site
										{
OFFSET 0 -0.326600 -0.000000
										}
									}
								}
								JOINT RThumb
								{
OFFSET 0 0.000000 0.000000
CHANNELS 3 Zrotation Xrotation Yrotation
									End Site
									{
OFFSET 0 -0.331580 0.331580
									}
								}
							}
						}
					}
				}
			}
		}
	}
}
MOTION
Frames: 9
Frame Time: 0.008333333333333333
-0.070200 15.776500 -3.206600 0.069400 -8.013200 9.918200 0.000000 0.000000 0.000000 -21.334100 -14.138400 -9.572800 1.343100 7.337300 20.718700 0.763000 6.115000 -19.831200 0.048800 1.425800 3.921100 0.000000 0.000000 0.000000 22.727600 10.087800 -12.171200 -1.819900 -8.480400 24.182900 -0.778300 -9.676900 -22.845100 -0.068900 -1.694000 4.660800 0.505900 -1.978000 -8.705800 0.216600 -2.687400 -7.279800 -0.223700 -1.377700 -2.688700 0.155800 -4.669400 -15.413700 -0.059100 -7.440600 36.517200 -1.367800 -3.226700 15.377400 0.000000 0.000000 0.000000 1.932100 14.559900 -11.411200 15.259600 -24.506500 3.332900 4.543500 24.003200 -13.244500 0.000000 0.000000 0.000000 -7.125000 0.000000 0.000000 -20.372500 42.316900 -1.413000 0.000000 0.000000 0.000000 -5.299400 7.977700 25.972700 -12.602800 -20.702500 -2.311000 -7.937300 19.951700 7.138800 0.000000 0.000000 0.000000 7.125000 0.000000 -0.000000 15.853200 36.762300 3.315000
-0.065841 15.779479 -3.226311 0.056332 -7.944745 10.044062 0.000000 0.000000 0.000000 -21.256006 -14.204082 -9.868364 1.354840 7.368226 20.810925 0.758388 6.048390 -19.737083 0.050293 1.447904 3.982126 0.000000 0.000000 0.000000 22.667479 9.970086 -12.381171 -1.803381 -8.443975 24.070779 -0.796688 -9.368840 -22.740103 -0.077885 -1.800694 4.955066 0.581771 -1.796761 -8.546311 0.110418 -2.450575 -7.136387 -0.358855 -1.263187 -2.631443 1.558550 -3.139650 -16.174419 -0.546795 -5.466345 38.057085 -1.537306 -2.212473 16.268275 0.000000 0.000000 0.000000 2.243834 14.462698 -10.684344 15.120112 -24.313141 3.275202 4.696609 24.210819 -13.298996 0.000000 0.000000 0.000000 -7.125000 0.000000 0.000000 -20.259736 42.383259 -1.369673 0.000000 0.000000 0.000000 -5.307807 7.780521 23.584971 -12.199435 -20.103038 -2.170359 -8.285877 21.325839 6.854030 0.000000 0.000000 0.000000 7.125000 0.000000 0.000000 15.505693 36.507018 3.337928
-0.052492 15.784052 -3.245554 0.109873 -7.877523 10.244588 0.000000 0.000000 0.000000 -21.274201 -14.300346 -10.204007 1.354773 7.368025 20.810460 0.747057 6.017571 -19.601010 0.052373 1.477341 4.063334 0.000000 0.000000 0.000000 22.461266 9.885317 -12.727408 -1.800527 -8.437568 24.051219 -0.861695 -8.893908 -22.911577 -0.107037 -2.109154 5.807305 0.593859 -1.640304 -8.482061 0.063244 -2.242052 -6.859205 -0.405571 -1.157636 -2.375793 2.782662 -1.999522 -16.698595 -1.367352 -3.831903 38.765746 -1.847660 -1.442287 16.739841 0.000000 0.000000 0.000000 2.342452 14.463659 -10.939891 15.610064 -24.989135 3.479629 4.829440 23.083620 -13.274492 0.000000 0.000000 0.000000 -7.125000 0.000000 0.000000 -20.137952 42.373606 -1.365711 0.000000 0.000000 0.000000 -5.417206 7.480276 22.011373 -12.053630 -19.885045 -2.120512 -8.642477 21.971368 6.753447 0.000000 0.000000 0.000000 7.125000 0.000000 0.000000 15.192473 36.430557 3.295778
-0.028672 15.789177 -3.272989 0.073311 -7.829590 10.475403 0.000000 0.000000 0.000000 -21.223481 -14.503629 -10.600121 1.360879 7.383878 20.857934 0.727053 6.102345 -19.461023 0.053881 1.498133 4.120574 0.000000 0.000000 0.000000 22.344015 10.122049 -13.019255 -1.795942 -8.427505 24.020376 -0.860375 -8.954058 -22.950310 -0.105923 -2.098713 5.778691 0.638959 -1.517806 -8.125074 0.112701 -2.077996 -6.606101 -0.363945 -1.073960 -2.304591 3.480631 -1.357533 -17.029158 -1.950408 -2.849434 38.887090 -2.059111 -1.005710 16.891978 0.000000 0.000000 0.000000 2.263558 14.532154 -11.800982 16.275058 -25.892095 3.765294 4.849198 21.601266 -13.377331 0.000000 0.000000 0.000000 -7.125000 0.000000 0.000000 -20.155228 42.472156 -1.315601 0.000000 0.000000 0.000000 -5.467916 7.229608 21.055496 -12.044098 -19.870767 -2.117252 -9.110769 22.016513 6.495137 0.000000 0.000000 0.000000 7.125000 0.000000 0.000000 14.755771 36.205869 3.279233
0.002229 15.799654 -3.291122 0.099327 -7.912553 10.839915 0.000000 0.000000 0.000000 -21.271780 -14.786867 -10.981305 1.346502 7.346461 20.745982 0.690757 6.364316 -19.284092 0.053532 1.492873 4.106139 0.000000 0.000000 0.000000 22.121288 10.717148 -13.371109 -1.798381 -8.432907 24.036808 -0.801988 -9.423657 -22.834487 -0.096683 -2.004925 5.519230 0.572462 -1.444963 -7.908035 0.176140 -1.975271 -6.455205 -0.252010 -1.017774 -2.260284 3.851412 -0.981847 -17.221198 -2.121868 -2.337764 39.032667 -2.114347 -0.756325 17.033587 0.000000 0.000000 0.000000 2.047799 14.557244 -12.389272 16.603291 -26.331783 3.909732 4.759714 21.021691 -13.391086 0.000000 0.000000 0.000000 -7.125000 0.000000 0.000000 -20.236520 42.476068 -1.319370 0.000000 0.000000 0.000000 -5.411602 7.189632 20.912400 -12.178122 -20.071304 -2.163051 -9.104239 21.636505 6.522921 0.000000 0.000000 0.000000 7.125000 0.000000 0.000000 14.766888 36.232576 3.271886
0.035743 15.811460 -3.293997 0.153619 -8.089663 11.303524 0.000000 0.000000 0.000000 -21.340175 -14.807002 -11.445426 1.320174 7.277019 20.538722 0.675636 6.298485 -19.078272 0.059296 1.570848 4.321123 0.000000 0.000000 0.000000 21.839608 11.350319 -13.797150 -1.806434 -8.450668 24.091540 -0.724123 -9.962169 -22.616311 -0.072448 -1.736168 4.776965 0.503391 -1.385848 -7.981908 0.190485 -1.893386 -6.377672 -0.197379 -0.973609 -2.135033 4.124510 -0.787968 -17.247398 -2.186839 -2.113675 39.128204 -2.153393 -0.628813 17.099409 0.000000 0.000000 0.000000 1.880964 14.403872 -12.597633 16.566050 -26.282111 3.893270 4.663780 21.077800 -13.374414 0.000000 0.000000 0.000000 -7.125000 0.000000 0.000000 -20.313049 42.450845 -1.338060 0.000000 0.000000 0.000000 -5.095870 7.234957 21.136054 -12.407051 -20.412263 -2.242203 -9.087880 20.934234 6.650132 0.000000 0.000000 0.000000 7.125000 0.000000 0.000000 14.806261 36.356171 3.234977
0.072927 15.816079 -3.298197 0.118798 -8.105417 11.514448 0.000000 0.000000 0.000000 -21.377535 -14.773746 -11.766983 1.319636 7.275689 20.534688 0.672062 6.121302 -18.907314 0.061659 1.602248 4.407668 0.000000 0.000000 0.000000 21.695924 11.654890 -13.988241 -1.806777 -8.451492 24.094076 -0.670270 -10.319116 -22.457784 -0.059462 -1.573280 4.327856 0.578768 -1.398004 -7.760084 0.194574 -1.912329 -6.271130 -0.232057 -0.985112 -2.148417 4.261838 -0.743080 -17.170073 -2.256210 -2.056744 38.950857 -2.190947 -0.599054 16.982528 0.000000 0.000000 0.000000 1.892617 14.078312 -12.911632 16.455712 -26.134622 3.844534 4.785118 21.400239 -13.299612 0.000000 0.000000 0.000000 -7.125000 0.000000 0.000000 -20.184175 42.392724 -1.359136 0.000000 0.000000 0.000000 -4.584750 7.258147 21.627745 -12.702695 -20.850031 -2.346432 -9.144985 20.001592 6.715354 0.000000 0.000000 0.000000 7.125000 0.000000 0.000000 14.772837 36.423267 3.202339
0.113663 15.814670 -3.299278 0.014210 -8.110640 11.545327 0.000000 0.000000 0.000000 -21.408549 -14.775537 -11.911751 1.338898 7.326403 20.686058 0.679751 6.058630 -18.941670 0.067565 1.677006 4.613797 0.000000 0.000000 0.000000 21.628517 11.680149 -14.021927 -1.803005 -8.443032 24.068045 -0.670308 -10.329896 -22.467897 -0.053597 -1.494208 4.109719 0.726367 -1.387693 -7.490350 0.224291 -1.904036 -5.997912 -0.281023 -0.983379 -2.016021 4.342897 -0.712845 -17.314548 -2.416479 -1.963971 38.495838 -2.246977 -0.580373 16.773456 0.000000 0.000000 0.000000 1.989399 13.610082 -13.853846 16.607535 -26.337488 3.911645 4.851359 21.001116 -13.539011 0.000000 0.000000 0.000000 -7.125000 0.000000 0.000000 -20.207617 42.624441 -1.239682 0.000000 0.000000 0.000000 -4.160734 7.267361 22.579695 -13.119557 -21.462157 -2.496859 -9.251368 18.229814 6.696338 0.000000 0.000000 0.000000 7.125000 0.000000 0.000000 14.681801 36.411013 3.186002
0.152430 15.812837 -3.303281 -0.091694 -8.231943 11.549848 0.000000 0.000000 0.000000 -21.435928 -14.720326 -12.059811 1.360825 7.383822 20.857519 0.695443 6.046874 -19.096032 0.079525 1.819284 5.006512 0.000000 0.000000 0.000000 21.560092 11.557604 -14.094179 -1.797944 -8.431833 24.033618 -0.722488 -10.132200 -22.756572 -0.031140 -1.138391 3.129693 0.727441 -1.349691 -7.187004 0.284860 -1.850541 -5.680871 -0.213859 -0.953226 -1.850772 4.442358 -0.577797 -17.669193 -2.522783 -1.752294 38.135743 -2.266364 -0.498021 16.678794 0.000000 0.000000 0.000000 2.172685 13.355373 -15.352188 17.142702 -27.045462 4.152001 4.883556 19.858609 -13.620920 0.000000 0.000000 0.000000 -7.125000 0.000000 0.000000 -20.207592 42.704596 -1.197732 0.000000 0.000000 0.000000 -4.031684 7.255785 23.975618 -13.406836 -21.880373 -2.602920 -8.988773 17.090216 6.611503 0.000000 0.000000 0.000000 7.125000 0.000000 0.000000 14.879420 36.312490 3.268265
